# xmcd CD database file
#
# Track frame offsets:
#	150
#	18675
#	39275
#	59109
#	73194
#	104826
#	123493
#	142276
#	162656
#	175761
#	196106
#	219983
#	233369
#	256225
#	262800
#
# Disc length: 3821 seconds
#
# Revision: 2
# Processed by: cddbd v1.5.2PL0 Copyright (c) Steve Scherf et al.
# Submitted via: CDex 1.51
#
DISCID=e00eeb0f
DTITLE=Hugo Siegmeth - Red Onions - Celebrating Sidney Bechet
DYEAR=2006
DGENRE=Jazz
TTITLE0=Chant in the Night
TTITLE1=Indian Summer
TTITLE2=September Song
TTITLE3=When you and I where young, Maggie
TTITLE4=Les Ognions
TTITLE5=Petite Fleur
TTITLE6=Blue Horizon
TTITLE7=Juan-Les-Pins
TTITLE8=Maple Leaf Rag
TTITLE9=Treat the Gentle
TTITLE10=The Mooche
TTITLE11=St. James Infirmary Blues
TTITLE12=Summertime
TTITLE13=Maggie Veranda
TTITLE14=Chant in the Nigth - Bonus Track
EXTD=YEAR: 2006
EXTT0=
EXTT1=
EXTT2=
EXTT3=
EXTT4=
EXTT5=
EXTT6=
EXTT7=
EXTT8=
EXTT9=
EXTT10=
EXTT11=
EXTT12=
EXTT13=
EXTT14=
PLAYORDER=
